<svg width="18" height="18" viewBox="0 0 18 18" fill="none" xmlns="http://www.w3.org/2000/svg">
<path d="M14.6257 7.31131C14.6257 8.92474 14.1019 10.4152 13.2194 11.6243L17.6704 16.078C18.1099 16.5174 18.1099 17.231 17.6704 17.6703C17.2309 18.1097 16.5172 18.1097 16.0777 17.6703L11.6267 13.2167C10.4173 14.1025 8.92661 14.6227 7.31286 14.6227C3.27321 14.6227 0 11.3502 0 7.31131C0 3.27245 3.27321 -0.00012207 7.31286 -0.00012207C11.3525 -0.00012207 14.6257 3.27245 14.6257 7.31131ZM7.31286 12.3731C7.97771 12.3731 8.63605 12.2421 9.25029 11.9878C9.86453 11.7334 10.4226 11.3605 10.8928 10.8905C11.3629 10.4205 11.7358 9.86248 11.9902 9.24836C12.2447 8.63424 12.3756 7.97603 12.3756 7.31131C12.3756 6.64659 12.2447 5.98838 11.9902 5.37426C11.7358 4.76014 11.3629 4.20213 10.8928 3.7321C10.4226 3.26208 9.86453 2.88923 9.25029 2.63485C8.63605 2.38048 7.97771 2.24955 7.31286 2.24955C6.64801 2.24955 5.98967 2.38048 5.37543 2.63485C4.76119 2.88923 4.20307 3.26208 3.73295 3.7321C3.26283 4.20213 2.88992 4.76014 2.63549 5.37426C2.38106 5.98838 2.25011 6.64659 2.25011 7.31131C2.25011 7.97603 2.38106 8.63424 2.63549 9.24836C2.88992 9.86248 3.26283 10.4205 3.73295 10.8905C4.20307 11.3605 4.76119 11.7334 5.37543 11.9878C5.98967 12.2421 6.64801 12.3731 7.31286 12.3731Z" fill="#747373"/>
</svg>
