<svg width="18" height="19" viewBox="0 0 18 19" fill="none" xmlns="http://www.w3.org/2000/svg">
<g clip-path="url(#clip0_1_45)">
<path d="M5.34731 1.54128C5.69536 1.85512 5.72349 2.3876 5.4106 2.7367L2.87935 5.55774C2.72466 5.73053 2.50669 5.83279 2.27466 5.83631C2.04263 5.83984 1.82114 5.75168 1.65591 5.58947L0.246143 4.17895C-0.0808106 3.84748 -0.0808106 3.31149 0.246143 2.98001C0.573096 2.64854 1.11099 2.64854 1.43794 2.98001L2.21489 3.75933L4.152 1.60123C4.46489 1.25213 4.99575 1.22392 5.3438 1.53776L5.34731 1.54128ZM5.34731 7.18336C5.69536 7.4972 5.72349 8.02967 5.4106 8.37878L2.87935 11.1998C2.72466 11.3726 2.50669 11.4749 2.27466 11.4784C2.04263 11.4819 1.82114 11.3938 1.65591 11.2316L0.246143 9.82103C-0.0843262 9.48956 -0.0843262 8.95356 0.246143 8.62562C0.576611 8.29767 1.11099 8.29414 1.43794 8.62562L2.21489 9.40493L4.152 7.24683C4.46489 6.89773 4.99575 6.86952 5.3438 7.18336H5.34731ZM7.87505 3.57948C7.87505 2.95533 8.37778 2.45107 9.00005 2.45107H16.875C17.4973 2.45107 18 2.95533 18 3.57948C18 4.20364 17.4973 4.7079 16.875 4.7079H9.00005C8.37778 4.7079 7.87505 4.20364 7.87505 3.57948ZM7.87505 9.22156C7.87505 8.59741 8.37778 8.09314 9.00005 8.09314H16.875C17.4973 8.09314 18 8.59741 18 9.22156C18 9.84572 17.4973 10.35 16.875 10.35H9.00005C8.37778 10.35 7.87505 9.84572 7.87505 9.22156ZM5.62505 14.8636C5.62505 14.2395 6.12778 13.7352 6.75005 13.7352H16.875C17.4973 13.7352 18 14.2395 18 14.8636C18 15.4878 17.4973 15.9921 16.875 15.9921H6.75005C6.12778 15.9921 5.62505 15.4878 5.62505 14.8636ZM1.68755 13.171C2.1351 13.171 2.56432 13.3493 2.88079 13.6668C3.19726 13.9842 3.37505 14.4147 3.37505 14.8636C3.37505 15.3125 3.19726 15.7431 2.88079 16.0605C2.56432 16.3779 2.1351 16.5563 1.68755 16.5563C1.24 16.5563 0.810774 16.3779 0.494306 16.0605C0.177838 15.7431 4.88181e-05 15.3125 4.88181e-05 14.8636C4.88181e-05 14.4147 0.177838 13.9842 0.494306 13.6668C0.810774 13.3493 1.24 13.171 1.68755 13.171Z" fill="#747373"/>
</g>
<defs>
<clipPath id="clip0_1_45">
<rect width="18" height="18.0546" fill="white" transform="translate(0 0.194214)"/>
</clipPath>
</defs>
</svg>
