<svg width="23" height="22" viewBox="0 0 23 22" fill="none" xmlns="http://www.w3.org/2000/svg">
<path d="M19.5946 10.3929C20.1354 9.90333 20.1354 9.10826 19.5946 8.61869L12.6724 2.35216C12.1316 1.86259 11.2533 1.86259 10.7125 2.35216C10.1717 2.84174 10.1717 3.6368 10.7125 4.12637L16.657 9.50775L10.7169 14.8891C10.1761 15.3787 10.1761 16.1738 10.7169 16.6633C11.2577 17.1529 12.1359 17.1529 12.6767 16.6633L19.599 10.3968L19.5946 10.3929ZM4.3657 16.6594L11.288 10.3929C11.8288 9.90333 11.8288 9.10826 11.288 8.61869L4.3657 2.35216C3.8249 1.86259 2.94664 1.86259 2.40584 2.35216C1.86504 2.84174 1.86504 3.6368 2.40584 4.12637L8.35032 9.50775L2.41017 14.8891C1.86937 15.3787 1.86937 16.1738 2.41017 16.6633C2.95097 17.1529 3.82923 17.1529 4.37003 16.6633L4.3657 16.6594Z" fill="#747373"/>
</svg>
