<svg width="21" height="22" viewBox="0 0 21 22" fill="none" xmlns="http://www.w3.org/2000/svg">
<g clip-path="url(#clip0_1_43)">
<path d="M6.10714 0.792845C6.10714 0.323847 5.67723 -0.0534668 5.14286 -0.0534668C4.60848 -0.0534668 4.17857 0.323847 4.17857 0.792845V2.20336H2.57143C1.15312 2.20336 0 3.21541 0 4.46019V5.0244V6.71702V15.7443C0 16.9891 1.15312 18.0012 2.57143 18.0012H15.4286C16.8469 18.0012 18 16.9891 18 15.7443V6.71702V5.0244V4.46019C18 3.21541 16.8469 2.20336 15.4286 2.20336H13.8214V0.792845C13.8214 0.323847 13.3915 -0.0534668 12.8571 -0.0534668C12.3228 -0.0534668 11.8929 0.323847 11.8929 0.792845V2.20336H6.10714V0.792845ZM1.92857 6.71702H16.0714V15.7443C16.0714 16.0547 15.7821 16.3086 15.4286 16.3086H2.57143C2.21786 16.3086 1.92857 16.0547 1.92857 15.7443V6.71702Z" fill="#747373"/>
</g>
<defs>
<clipPath id="clip0_1_43">
<rect width="21" height="20.0607" fill="white" transform="translate(0 0.949585)"/>
</clipPath>
</defs>
</svg>
