<svg width="16" height="16" viewBox="0 0 16 16" fill="none" xmlns="http://www.w3.org/2000/svg">
<g clip-path="url(#clip0_150_309)">
<path d="M4.57143 0C5.20357 0 5.71429 0.446875 5.71429 1V2H10.2857V1C10.2857 0.446875 10.7964 0 11.4286 0C12.0607 0 12.5714 0.446875 12.5714 1V2H14.2857C15.2321 2 16 2.67188 16 3.5V5H0V3.5C0 2.67188 0.767857 2 1.71429 2H3.42857V1C3.42857 0.446875 3.93929 0 4.57143 0ZM0 6H16V14.5C16 15.3281 15.2321 16 14.2857 16H1.71429C0.767857 16 0 15.3281 0 14.5V6ZM2.28571 8.5V9.5C2.28571 9.775 2.54286 10 2.85714 10H4C4.31429 10 4.57143 9.775 4.57143 9.5V8.5C4.57143 8.225 4.31429 8 4 8H2.85714C2.54286 8 2.28571 8.225 2.28571 8.5ZM6.85714 8.5V9.5C6.85714 9.775 7.11429 10 7.42857 10H8.57143C8.88571 10 9.14286 9.775 9.14286 9.5V8.5C9.14286 8.225 8.88571 8 8.57143 8H7.42857C7.11429 8 6.85714 8.225 6.85714 8.5ZM12 8C11.6857 8 11.4286 8.225 11.4286 8.5V9.5C11.4286 9.775 11.6857 10 12 10H13.1429C13.4571 10 13.7143 9.775 13.7143 9.5V8.5C13.7143 8.225 13.4571 8 13.1429 8H12ZM2.28571 12.5V13.5C2.28571 13.775 2.54286 14 2.85714 14H4C4.31429 14 4.57143 13.775 4.57143 13.5V12.5C4.57143 12.225 4.31429 12 4 12H2.85714C2.54286 12 2.28571 12.225 2.28571 12.5ZM7.42857 12C7.11429 12 6.85714 12.225 6.85714 12.5V13.5C6.85714 13.775 7.11429 14 7.42857 14H8.57143C8.88571 14 9.14286 13.775 9.14286 13.5V12.5C9.14286 12.225 8.88571 12 8.57143 12H7.42857ZM11.4286 12.5V13.5C11.4286 13.775 11.6857 14 12 14H13.1429C13.4571 14 13.7143 13.775 13.7143 13.5V12.5C13.7143 12.225 13.4571 12 13.1429 12H12C11.6857 12 11.4286 12.225 11.4286 12.5Z" fill="#A1A1A1"/>
</g>
<defs>
<clipPath id="clip0_150_309">
<rect width="16" height="16" fill="white"/>
</clipPath>
</defs>
</svg>
