<svg width="18" height="15" viewBox="0 0 18 15" fill="none" xmlns="http://www.w3.org/2000/svg">
<path d="M10.2857 1.32556C10.2857 0.703296 9.71113 0.200562 8.99997 0.200562C8.2888 0.200562 7.71425 0.703296 7.71425 1.32556V6.38806H1.92854C1.21738 6.38806 0.642822 6.8908 0.642822 7.51306C0.642822 8.13533 1.21738 8.63806 1.92854 8.63806H7.71425V13.7006C7.71425 14.3228 8.2888 14.8256 8.99997 14.8256C9.71113 14.8256 10.2857 14.3228 10.2857 13.7006V8.63806H16.0714C16.7826 8.63806 17.3571 8.13533 17.3571 7.51306C17.3571 6.8908 16.7826 6.38806 16.0714 6.38806H10.2857V1.32556Z" fill="black" fill-opacity="0.6"/>
</svg>
