<svg width="18" height="18" viewBox="0 0 18 18" fill="none" xmlns="http://www.w3.org/2000/svg">
<path d="M17.9501 5.85703C18.0695 6.16289 17.9688 6.50391 17.7114 6.72187L16.0963 8.10703C16.1373 8.39883 16.1597 8.69766 16.1597 9C16.1597 9.30234 16.1373 9.60117 16.0963 9.89297L17.7114 11.2781C17.9688 11.4961 18.0695 11.8371 17.9501 12.143C17.786 12.5613 17.5883 12.9621 17.3608 13.3488L17.1855 13.6336C16.9393 14.0203 16.6633 14.3859 16.3611 14.7305C16.1411 14.9836 15.7755 15.068 15.4473 14.9695L13.3697 14.3473C12.8699 14.7094 12.3178 15.0117 11.7285 15.2402L11.2622 17.2477C11.1876 17.5676 10.9265 17.8207 10.5834 17.8734C10.0686 17.9543 9.53898 17.9965 8.99814 17.9965C8.45729 17.9965 7.92763 17.9543 7.41289 17.8734C7.06973 17.8207 6.80863 17.5676 6.73403 17.2477L6.26779 15.2402C5.67845 15.0117 5.12641 14.7094 4.62659 14.3473L2.55272 14.973C2.22448 15.0715 1.85894 14.9836 1.63887 14.734C1.33674 14.3895 1.06072 14.0238 0.814545 13.6371L0.639236 13.3523C0.411707 12.9656 0.214018 12.5648 0.0498982 12.1465C-0.0694614 11.8406 0.0312482 11.4996 0.288617 11.2816L1.9037 9.89648C1.86267 9.60117 1.84029 9.30234 1.84029 9C1.84029 8.69766 1.86267 8.39883 1.9037 8.10703L0.288617 6.72187C0.0312482 6.50391 -0.0694614 6.16289 0.0498982 5.85703C0.214018 5.43867 0.411707 5.03789 0.639236 4.65117L0.814545 4.36641C1.06072 3.97969 1.33674 3.61406 1.63887 3.26953C1.85894 3.01641 2.22448 2.93203 2.55272 3.03047L4.63032 3.65273C5.13014 3.29063 5.68218 2.98828 6.27152 2.75977L6.73776 0.752344C6.81236 0.432422 7.07346 0.179297 7.41662 0.126562C7.93136 0.0421875 8.46102 0 9.00187 0C9.54271 0 10.0724 0.0421875 10.5871 0.123047C10.9303 0.175781 11.1914 0.428906 11.266 0.748828L11.7322 2.75625C12.3216 2.98477 12.8736 3.28711 13.3734 3.64922L15.451 3.02695C15.7793 2.92852 16.1448 3.01641 16.3649 3.26602C16.667 3.61055 16.943 3.97617 17.1892 4.36289L17.3645 4.64766C17.592 5.03437 17.7897 5.43516 17.9538 5.85352L17.9501 5.85703ZM9.00187 11.8125C9.79327 11.8125 10.5523 11.5162 11.1119 10.9887C11.6715 10.4613 11.9859 9.74592 11.9859 9C11.9859 8.25408 11.6715 7.53871 11.1119 7.01126C10.5523 6.48382 9.79327 6.1875 9.00187 6.1875C8.21046 6.1875 7.45147 6.48382 6.89187 7.01126C6.33226 7.53871 6.01788 8.25408 6.01788 9C6.01788 9.74592 6.33226 10.4613 6.89187 10.9887C7.45147 11.5162 8.21046 11.8125 9.00187 11.8125Z" fill="#747373"/>
</svg>
