<svg width="18" height="16" viewBox="0 0 18 16" fill="none" xmlns="http://www.w3.org/2000/svg">
<path d="M13.2855 2.72305L17.6027 7.04023C17.8559 7.29336 18 7.64141 18 8C18 8.35859 17.8559 8.70664 17.6027 8.95977L13.2855 13.277C13.0605 13.502 12.7582 13.625 12.4418 13.625C11.7844 13.625 11.25 13.0906 11.25 12.4332V10.25H6.75C6.12773 10.25 5.625 9.74727 5.625 9.125V6.875C5.625 6.25273 6.12773 5.75 6.75 5.75H11.25V3.5668C11.25 2.90937 11.7844 2.375 12.4418 2.375C12.7582 2.375 13.0605 2.50156 13.2855 2.72305ZM5.625 2.375H3.375C2.75273 2.375 2.25 2.87773 2.25 3.5V12.5C2.25 13.1223 2.75273 13.625 3.375 13.625H5.625C6.24727 13.625 6.75 14.1277 6.75 14.75C6.75 15.3723 6.24727 15.875 5.625 15.875H3.375C1.51172 15.875 0 14.3633 0 12.5V3.5C0 1.63672 1.51172 0.125 3.375 0.125H5.625C6.24727 0.125 6.75 0.627734 6.75 1.25C6.75 1.87227 6.24727 2.375 5.625 2.375Z" fill="#747373"/>
</svg>
