<svg width="14" height="14" viewBox="0 0 14 14" fill="none" xmlns="http://www.w3.org/2000/svg">
<path d="M4.225 0.483984C4.39375 0.185938 4.74063 0 5.11875 0H8.88125C9.25937 0 9.60625 0.185938 9.775 0.483984L10 0.875H13C13.5531 0.875 14 1.26602 14 1.75C14 2.23398 13.5531 2.625 13 2.625H1C0.446875 2.625 0 2.23398 0 1.75C0 1.26602 0.446875 0.875 1 0.875H4L4.225 0.483984ZM1 3.5H13V12.25C13 13.2152 12.1031 14 11 14H3C1.89687 14 1 13.2152 1 12.25V3.5ZM4 5.25C3.725 5.25 3.5 5.44688 3.5 5.6875V11.8125C3.5 12.0531 3.725 12.25 4 12.25C4.275 12.25 4.5 12.0531 4.5 11.8125V5.6875C4.5 5.44688 4.275 5.25 4 5.25ZM7 5.25C6.725 5.25 6.5 5.44688 6.5 5.6875V11.8125C6.5 12.0531 6.725 12.25 7 12.25C7.275 12.25 7.5 12.0531 7.5 11.8125V5.6875C7.5 5.44688 7.275 5.25 7 5.25ZM10 5.25C9.725 5.25 9.5 5.44688 9.5 5.6875V11.8125C9.5 12.0531 9.725 12.25 10 12.25C10.275 12.25 10.5 12.0531 10.5 11.8125V5.6875C10.5 5.44688 10.275 5.25 10 5.25Z" fill="#464646"/>
</svg>
