<svg width="18" height="16" viewBox="0 0 18 16" fill="none" xmlns="http://www.w3.org/2000/svg">
<path d="M17.5944 8.41097C18.1352 7.92139 18.1352 7.12633 17.5944 6.63676L10.6722 0.370231C10.1314 -0.119341 9.25309 -0.119341 8.71229 0.370231C8.17149 0.859803 8.17149 1.65487 8.71229 2.14444L14.6568 7.52582L8.71662 12.9072C8.17582 13.3968 8.17582 14.1918 8.71662 14.6814C9.25742 15.171 10.1357 15.171 10.6765 14.6814L17.5987 8.41488L17.5944 8.41097ZM2.36546 14.6775L9.28771 8.41097C9.82851 7.92139 9.82851 7.12633 9.28771 6.63676L2.36546 0.370231C1.82466 -0.119341 0.946401 -0.119341 0.4056 0.370231C-0.1352 0.859803 -0.1352 1.65487 0.4056 2.14444L6.35008 7.52582L0.409927 12.9072C-0.130874 13.3968 -0.130874 14.1918 0.409927 14.6814C0.950727 15.171 1.82899 15.171 2.36979 14.6814L2.36546 14.6775Z" fill="#747373"/>
</svg>
